<svg width="525" height="250" viewBox="0 0 525 250" fill="none" xmlns="http://www.w3.org/2000/svg">
<path d="M100 46.6C104.933 46.6 108.733 48 111.4 50.8C114.2 53.4667 115.6 57.1333 115.6 61.8C115.6 72.2 109.4 81.8667 97 90.8C84.6 99.6 70.4667 104 54.6 104C47.6667 104 40.3333 103 32.6 101C27.5333 109.267 25 118.267 25 128C25 137.6 27.6667 145.4 33 151.4C38.3333 157.267 46.1333 160.2 56.4 160.2C74.8 160.2 86.8667 149.467 92.6 128H102C100.533 140.4 94.6667 151.333 84.4 160.8C74.2667 170.267 60.8667 175 44.2 175C35.4 175 27.2 171.8 19.6 165.4C12 158.867 8.2 149.467 8.2 137.2C8.2 124.933 12.8667 111.533 22.2 97C15.4 93 10 88.0667 6 82.2L11.4 76.2C12.3333 77.1333 13.6 78.5333 15.2 80.4C18.2667 84 22.4 87.1333 27.6 89.8C35.4667 78.8667 46.8667 68.9333 61.8 60C76.8667 51.0667 89.6 46.6 100 46.6ZM54 96C65.6 96 75.8 93.2667 84.6 87.8C93.4 82.3333 97.8 75.9333 97.8 68.6C97.8 66.0667 96.8667 64.0667 95 62.6C93.2667 61 91 60.2 88.2 60.2C80.0667 60.2 71 63.4667 61 70C51 76.4 43.0667 84.1333 37.2 93.2C42 95.0667 47.6 96 54 96ZM209.48 152.8L214.08 156.2C212.213 160.2 208.746 164 203.68 167.6C198.746 171.2 194.213 173 190.08 173C182.213 173 178.28 168.867 178.28 160.6C178.28 156.733 179.28 152.133 181.28 146.8L173.88 154.4C166.68 161.733 160.413 166.667 155.08 169.2C149.88 171.733 144.746 173 139.68 173C134.613 173 130.746 171.6 128.08 168.8C125.546 165.867 124.28 161.867 124.28 156.8C124.28 147.467 127.88 138.267 135.08 129.2C142.28 120 151.48 112.533 162.68 106.8C173.88 101.067 185.08 98.1333 196.28 98L196.68 104.6L188.28 106.4C176.146 109.067 165.413 114.4 156.08 122.4C146.88 130.4 142.28 138.4 142.28 146.4C142.28 154.267 145.48 158.2 151.88 158.2C157.88 158.2 165.28 154 174.08 145.6C182.88 137.2 190.213 127.333 196.08 116L204.48 121C196.213 137.667 192.08 148.267 192.08 152.8C192.08 154.667 192.68 156.267 193.88 157.6C195.213 158.8 196.48 159.4 197.68 159.4C199.013 159.4 199.88 159.333 200.28 159.2C200.68 159.067 201.08 158.933 201.48 158.8C201.88 158.533 202.346 158.2 202.88 157.8C203.546 157.4 204.08 157 204.48 156.6C205.013 156.2 205.813 155.6 206.88 154.8C207.946 154 208.813 153.333 209.48 152.8ZM273.43 102.2C276.763 102.2 279.496 103.333 281.63 105.6C283.763 107.867 284.83 110.8 284.83 114.4C284.83 121.6 280.696 129.2 272.43 137.2L267.63 133.4C269.496 129.267 270.43 126.267 270.43 124.4C270.43 120.8 268.43 119 264.43 119C260.43 119 256.63 121.533 253.03 126.6C249.43 131.667 245.163 139.533 240.23 150.2C235.43 160.733 231.763 168.2 229.23 172.6L217.83 167.6C225.163 150.933 229.363 141.133 230.43 138.2C234.03 127.8 235.83 114.6 235.83 98.6L247.03 95.6C246.63 104.267 246.03 111 245.23 115.8C244.43 120.467 242.496 128.133 239.43 138.8C252.896 114.4 264.23 102.2 273.43 102.2ZM323.723 118C330.123 111.467 335.723 107 340.523 104.6C345.457 102.067 350.057 100.8 354.323 100.8C358.723 100.8 362.323 102.333 365.123 105.4C368.057 108.333 369.523 112.2 369.523 117C369.523 129.4 364.323 142.467 353.923 156.2C343.523 169.8 332.323 176.6 320.323 176.6C316.723 176.6 313.323 175.933 310.123 174.6L314.923 165.8C317.057 166.333 318.723 166.6 319.923 166.6C328.057 166.6 335.457 162.067 342.123 153C348.79 143.933 352.123 135 352.123 126.2C352.123 123.4 351.19 121.133 349.323 119.4C347.59 117.533 345.323 116.6 342.523 116.6C336.39 116.6 329.19 121.533 320.923 131.4C312.79 141.267 305.657 154.133 299.523 170L287.323 165C291.323 144.6 299.323 119.733 311.323 90.4C323.323 61.0667 333.323 40.3333 341.323 28.2L351.523 31.8C342.723 48.2 333.323 68.5333 323.323 92.8C313.457 117.067 307.657 133.533 305.923 142.2C311.39 132.6 317.323 124.533 323.723 118ZM430.656 149.4L435.256 153C431.123 158.733 425.456 163.533 418.256 167.4C411.056 171.133 404.056 173 397.256 173C390.456 173 384.99 171 380.856 167C376.723 163 374.656 157.733 374.656 151.2C374.656 138.933 381.123 126.867 394.056 115C407.123 103.133 420.323 97.2 433.656 97.2C442.456 97.2 446.856 100.667 446.856 107.6C446.856 114.8 442.19 122.067 432.856 129.4C423.656 136.733 410.656 143.4 393.856 149.4C395.056 152.467 396.923 154.867 399.456 156.6C401.99 158.333 404.59 159.2 407.256 159.2C412.99 159.2 420.79 155.933 430.656 149.4ZM392.856 143.4C403.656 139.667 412.923 135 420.656 129.4C428.39 123.8 432.256 118.667 432.256 114C432.256 112.267 431.59 110.733 430.256 109.4C428.923 108.067 427.39 107.4 425.656 107.4C419.39 107.4 412.59 111.333 405.256 119.2C398.056 126.933 393.923 135 392.856 143.4ZM506.828 149.4L511.428 153C507.295 158.733 501.628 163.533 494.428 167.4C487.228 171.133 480.228 173 473.428 173C466.628 173 461.161 171 457.028 167C452.895 163 450.828 157.733 450.828 151.2C450.828 138.933 457.295 126.867 470.228 115C483.295 103.133 496.495 97.2 509.828 97.2C518.628 97.2 523.028 100.667 523.028 107.6C523.028 114.8 518.361 122.067 509.028 129.4C499.828 136.733 486.828 143.4 470.028 149.4C471.228 152.467 473.095 154.867 475.628 156.6C478.161 158.333 480.761 159.2 483.428 159.2C489.161 159.2 496.961 155.933 506.828 149.4ZM469.028 143.4C479.828 139.667 489.095 135 496.828 129.4C504.561 123.8 508.428 118.667 508.428 114C508.428 112.267 507.761 110.733 506.428 109.4C505.095 108.067 503.561 107.4 501.828 107.4C495.561 107.4 488.761 111.333 481.428 119.2C474.228 126.933 470.095 135 469.028 143.4Z" fill="#FD4F35"/>
</svg>
