<svg width="28" height="33" viewBox="0 0 28 33" fill="none" xmlns="http://www.w3.org/2000/svg">
<path d="M24 0.399999C25.2333 0.399999 26.1833 0.749999 26.85 1.45C27.55 2.11667 27.9 3.03333 27.9 4.2C27.9 6.8 26.35 9.21667 23.25 11.45C20.15 13.65 16.6167 14.75 12.65 14.75C10.9167 14.75 9.08333 14.5 7.15 14C5.88333 16.0667 5.25 18.3167 5.25 20.75C5.25 23.15 5.91667 25.1 7.25 26.6C8.58333 28.0667 10.5333 28.8 13.1 28.8C17.7 28.8 20.7167 26.1167 22.15 20.75H24.5C24.1333 23.85 22.6667 26.5833 20.1 28.95C17.5667 31.3167 14.2167 32.5 10.05 32.5C7.85 32.5 5.8 31.7 3.9 30.1C2 28.4667 1.05 26.1167 1.05 23.05C1.05 19.9833 2.21667 16.6333 4.55 13C2.85 12 1.5 10.7667 0.5 9.3L1.85 7.8C2.08333 8.03333 2.4 8.38333 2.8 8.85C3.56667 9.75 4.6 10.5333 5.9 11.2C7.86667 8.46667 10.7167 5.98333 14.45 3.75C18.2167 1.51667 21.4 0.399999 24 0.399999ZM12.5 12.75C15.4 12.75 17.95 12.0667 20.15 10.7C22.35 9.33333 23.45 7.73333 23.45 5.9C23.45 5.26667 23.2167 4.76667 22.75 4.4C22.3167 4 21.75 3.8 21.05 3.8C19.0167 3.8 16.75 4.61667 14.25 6.25C11.75 7.85 9.76667 9.78333 8.3 12.05C9.5 12.5167 10.9 12.75 12.5 12.75Z" fill="white"/>
</svg>
